<svg width="26" height="26" viewBox="0 0 26 26" fill="none" xmlns="http://www.w3.org/2000/svg">
<path d="M13.5198 10.6445L16.9336 14.0582C16.9807 14.1053 17.0177 14.1579 17.0448 14.216C17.0719 14.274 17.0854 14.3363 17.0854 14.4026C17.0854 14.5354 17.0406 14.6507 16.9508 14.7486C16.861 14.8465 16.7427 14.8955 16.5959 14.8955L9.40426 14.8955C9.2574 14.8955 9.13909 14.8461 9.04934 14.7472C8.95957 14.6484 8.91468 14.533 8.91468 14.4012C8.91468 14.3682 8.96538 14.2538 9.06678 14.058L12.4803 10.6445C12.5588 10.566 12.6399 10.5087 12.7236 10.4726C12.8074 10.4365 12.8995 10.4185 13.0001 10.4185C13.1006 10.4185 13.1927 10.4365 13.2765 10.4726C13.3603 10.5087 13.4414 10.566 13.5198 10.6445Z" fill="currentColor"/>
</svg>
