<svg width="16" height="16" viewBox="0 0 16 16" fill="none"
  xmlns="http://www.w3.org/2000/svg">
  <path d="M7.37533 8.62528V11.3336C7.37533 11.511 7.43515 11.6595 7.5548 11.7791C7.67446 11.8988 7.82296 11.9586 8.0003 11.9586C8.17765 11.9586 8.32615 11.8988 8.4458 11.7791C8.56546 11.6595 8.62528 11.511 8.62528 11.3336V8.62528H11.3336C11.511 8.62528 11.6595 8.56546 11.7791 8.44581C11.8988 8.32615 11.9586 8.17765 11.9586 8.00031C11.9586 7.82296 11.8988 7.67446 11.7791 7.55481C11.6595 7.43515 11.511 7.37533 11.3336 7.37533H8.62528V4.66697C8.62528 4.48962 8.56546 4.34113 8.4458 4.22147C8.32615 4.10182 8.17765 4.04199 8.0003 4.04199C7.82296 4.04199 7.67446 4.10182 7.5548 4.22147C7.43515 4.34113 7.37533 4.48962 7.37533 4.66697V7.37533H4.66697C4.48962 7.37533 4.34112 7.43515 4.22147 7.55481C4.10182 7.67446 4.04199 7.82296 4.04199 8.00031C4.04199 8.17765 4.10182 8.32615 4.22147 8.44581C4.34112 8.56546 4.48962 8.62528 4.66697 8.62528H7.37533ZM2.42341 15.0836C2.00246 15.0836 1.64616 14.9378 1.35449 14.6461C1.06283 14.3545 0.916992 13.9981 0.916992 13.5772V2.42341C0.916992 2.00247 1.06283 1.64616 1.35449 1.35449C1.64616 1.06283 2.00246 0.916992 2.42341 0.916992H13.5772C13.9981 0.916992 14.3545 1.06283 14.6461 1.35449C14.9378 1.64616 15.0836 2.00247 15.0836 2.42341V13.5772C15.0836 13.9981 14.9378 14.3545 14.6461 14.6461C14.3545 14.9378 13.9981 15.0836 13.5772 15.0836H2.42341ZM2.42341 13.8336H13.5772C13.6413 13.8336 13.7001 13.8069 13.7535 13.7535C13.8069 13.7001 13.8336 13.6413 13.8336 13.5772V2.42341C13.8336 2.3593 13.8069 2.30053 13.7535 2.2471C13.7001 2.19368 13.6413 2.16697 13.5772 2.16697H2.42341C2.3593 2.16697 2.30053 2.19368 2.2471 2.2471C2.19368 2.30053 2.16697 2.3593 2.16697 2.42341V13.5772C2.16697 13.6413 2.19368 13.7001 2.2471 13.7535C2.30053 13.8069 2.3593 13.8336 2.42341 13.8336Z" fill="#787486"/>
</svg>
